<?xml version="1.0" standalone="no"?>
<!DOCTYPE svg PUBLIC "-//W3C//DTD SVG 20010904//EN"
 "http://www.w3.org/TR/2001/REC-SVG-20010904/DTD/svg10.dtd">
<svg version="1.0" xmlns="http://www.w3.org/2000/svg"
 width="275.000000pt" height="70.000000pt" viewBox="0 0 275.000000 70.000000"
 preserveAspectRatio="xMidYMid meet">
<metadata>
Created by potrace 1.13, written by Peter Selinger 2001-2015
</metadata>
<g transform="translate(0.000000,70.000000) scale(0.100000,-0.100000)"
fill="#000000" stroke="none">
<path d="M342 658 c3 -37 6 -43 28 -47 14 -1 28 -8 32 -15 4 -6 8 -141 8 -301
l0 -290 42 1 43 1 5 149 c6 167 16 199 80 241 45 31 121 32 148 2 27 -29 32
-61 32 -224 0 -102 4 -145 13 -153 6 -5 40 -12 75 -14 l62 -3 0 42 c0 38 -2
42 -27 45 l-28 3 -5 155 c-4 132 -8 160 -25 190 -55 94 -219 94 -299 0 l-26
-32 0 131 c0 154 -4 161 -103 161 l-58 0 3 -42z"/>
<path d="M127 669 c3 -11 9 -22 14 -25 15 -9 10 -45 -10 -70 -10 -13 -22 -20
-26 -16 -5 4 -5 1 -1 -5 4 -7 4 -19 -1 -25 -11 -18 -11 -31 0 -45 5 -7 5 -18
1 -25 -4 -7 -4 -10 1 -6 11 10 45 -36 45 -60 0 -11 -11 -29 -25 -40 -13 -11
-22 -22 -19 -24 2 -3 0 -16 -5 -30 -7 -19 -3 -32 20 -66 35 -52 36 -75 6 -99
-13 -10 -22 -24 -19 -31 2 -6 0 -12 -5 -12 -13 0 -10 -30 5 -56 6 -12 9 -23 7
-26 -3 -3 2 -5 10 -5 8 0 15 4 15 9 0 5 6 6 13 3 6 -4 1 2 -11 12 -17 14 -23
27 -20 49 1 16 8 29 15 29 6 0 15 4 20 9 5 5 2 6 -7 2 -13 -7 -13 -6 0 6 8 7
15 27 15 43 -1 32 -25 95 -37 95 -4 0 -7 15 -5 33 1 17 8 32 14 32 6 0 15 4
20 9 5 5 2 6 -7 2 -12 -6 -12 -5 1 6 9 8 15 27 14 50 -1 24 2 35 9 32 6 -3 -1
4 -17 16 -15 12 -25 26 -21 31 3 5 1 9 -3 9 -5 0 -9 11 -9 25 0 14 4 25 9 25
4 0 6 4 2 9 -3 5 3 16 13 23 13 9 18 24 17 50 -1 24 2 35 9 32 6 -3 0 4 -14
16 -14 12 -18 18 -10 14 8 -4 11 -3 7 1 -15 18 -35 13 -30 -6z"/>
<path d="M200 671 c0 -11 5 -23 10 -26 17 -10 11 -47 -10 -70 -34 -36 -36 -84
-6 -128 31 -46 32 -64 6 -92 -34 -36 -36 -84 -6 -128 31 -45 33 -68 7 -91 -44
-40 -33 -136 15 -136 24 0 33 23 14 35 -17 11 -11 58 11 81 28 30 28 87 0 125
-27 36 -27 59 0 93 27 35 27 90 0 127 -12 15 -21 36 -21 45 0 9 9 29 21 45 26
36 27 93 3 120 -22 24 -44 24 -44 0z"/>
<path d="M2090 570 l0 -70 -35 0 c-34 0 -35 -1 -35 -40 0 -39 1 -40 35 -40
l35 0 0 -154 c0 -142 2 -155 23 -186 31 -48 78 -72 140 -74 l52 -1 3 42 c3 43
3 43 -32 43 -22 0 -45 9 -63 24 -28 24 -28 25 -31 165 l-4 141 61 0 61 0 0 40
0 40 -60 0 -60 0 0 70 0 70 -45 0 -45 0 0 -70z"/>
<path d="M2630 550 c0 -48 -1 -50 -27 -51 l-28 -1 25 -8 c24 -8 24 -8 3 -9
-28 -1 -31 -31 -3 -31 27 0 33 -30 28 -144 -1 -52 0 -92 5 -89 4 2 7 -3 7 -11
0 -9 0 -19 0 -23 1 -12 63 -42 88 -43 32 0 28 27 -7 44 -16 9 -30 21 -32 28
-2 7 -3 59 -1 116 l3 102 32 1 32 2 -35 7 -35 7 33 2 c21 1 32 6 32 16 0 10
-11 15 -32 16 l-33 2 35 7 35 7 -32 2 c-33 1 -33 1 -33 54 0 37 -3 48 -10 37
-6 -10 -10 -11 -10 -2 0 6 -9 12 -20 12 -17 0 -20 -7 -20 -50z"/>
<path d="M1105 486 c-96 -44 -140 -126 -134 -249 5 -97 40 -157 119 -204 49
-30 61 -33 135 -33 79 0 131 16 177 51 17 13 17 16 -2 46 l-19 32 -50 -25
c-113 -59 -240 -9 -258 101 l-6 35 179 2 179 3 -3 58 c-7 167 -161 256 -317
183z m150 -60 c36 -15 60 -45 70 -88 l7 -28 -131 0 c-85 0 -131 4 -131 10 0
38 52 96 96 110 42 12 51 12 89 -4z"/>
<path d="M1600 488 c-33 -17 -47 -31 -54 -55 -13 -48 -3 -63 44 -63 32 0 40 4
40 19 0 30 28 45 87 45 48 0 59 -3 79 -27 15 -18 24 -41 24 -63 l0 -34 -63 0
c-91 0 -164 -24 -209 -70 -37 -37 -44 -57 -38 -120 6 -75 66 -120 159 -120 70
0 109 16 140 57 l20 28 1 -26 c0 -37 16 -47 85 -50 l60 -3 3 42 c3 41 2 42
-27 42 l-29 0 -4 153 c-3 130 -6 157 -23 187 -30 52 -93 80 -180 80 -54 0 -82
-5 -115 -22z m220 -279 c0 -120 -168 -190 -211 -87 -27 65 40 118 149 118 l62
0 0 -31z"/>
<path d="M2423 482 c-35 -3 -43 -7 -43 -23 0 -10 5 -19 11 -19 32 0 39 -29 39
-164 l0 -136 45 0 c49 0 61 18 23 35 -22 10 -23 15 -25 158 -1 82 -3 150 -5
150 -2 1 -22 1 -45 -1z"/>
</g>
</svg>
